<svg version="1.1" id="Layer_1" xmlns="http://www.w3.org/2000/svg" xmlns:xlink="http://www.w3.org/1999/xlink" x="0px" y="0px" width="100%" viewBox="225 430 571 169" enable-background="new 225 430 571 169" xml:space="preserve"><path fill="#E71809" opacity="1.000000" stroke="none" d="M482.485 566.273c1.076-3.712 1.678-7.075.918-11.03-8.948 7-18.88 8.887-29.412 6.616-17.858-3.85-28.61-16.33-30.157-35.023-.74-8.952-.534-17.885 2.265-26.682 4.752-14.933 14.59-23.942 29.948-26.68 9.282-1.654 18.577-1.46 27.572 1.842 15.653 5.745 22.205 18.312 23.14 33.687 1.17 19.25 1.835 38.644-.935 57.83-2.6 18.007-11.522 26.637-30.074 29.57-15.892 2.514-30.991 1.223-42.647-11.905-2.942-3.315-4.658-7.215-5.822-11.459-.686-2.499-.168-4.04 2.534-4.089 6.324-.113 12.651-.08 18.977-.063 1.853.005 2.935 1.345 4.1 2.558 9.56 9.958 23.461 7.687 29.593-5.172m-32.257-62.427c-3.863 8.772-3.84 17.844-1.55 26.898 2.12 8.383 8.165 12.27 17.712 12.077 8.481-.172 14.34-4.703 16.328-12.698 1.72-6.917 1.422-13.876.1-20.795-1.473-7.714-5.129-13.929-13.346-15.715-6.166-1.34-14.098-.087-19.244 10.233M719.4 544.352c-3.294-6.553-4.6-13.204-4.612-20.104-.043-23.967-.034-47.935-.012-71.903.005-6.093.358-6.383 6.555-6.433 12.229-.099 16.446 4.298 16.143 16.57-.15 6.065-.026 12.138.597 18.442 6.021-5.017 12.509-7.584 19.787-8.156 19.04-1.496 33.364 8.424 38.346 26.887 3.039 11.262 3.15 22.79.689 34.123-4.148 19.093-16.679 28.828-36.74 29.429-7.247.217-14.27-.957-21.127-3.113-8.41-2.644-15.148-7.515-19.626-15.742m45.213-2.934c5.4-2.68 7.748-7.4 9.128-12.997 1.768-7.176 1.11-14.276-.489-21.265-1.895-8.286-7.8-13.4-15.077-13.838-8.796-.529-14.433 3.4-17.95 12.087-2.469 6.096-2.338 12.388-1.951 18.707.91 14.866 11.305 21.956 26.34 17.306m-460.189 17.181c-14.778 7.974-29.489 8.195-44.532 1.918-4.053-1.69-4.817-3.713-2.487-7.559 8.712-14.374 17.217-28.873 25.794-43.329.386-.65.712-1.335.618-2.29l-38.612 42.748c-4.991-3.394-8.293-8.087-10.787-13.361-13.87-29.337 3.749-64.147 35.569-70.376 6.679-1.308 7.558-.85 7.105 5.822-1.44 21.256 17.33 35.515 34.325 34.521 5.222-.305 9.82-2.702 14.594-4.275 7.946 17.55-1.18 45.07-21.587 56.18m-49.41-51.303c.88.975 1.605 2.186 2.667 2.883 3.476 2.282 7.026 2.182 10.001-.802 2.613-2.62 3.021-6.058 1.275-9.208-2.01-3.623-5.515-4.694-9.467-3.62-3.97 1.079-5.515 4.505-4.476 10.747m40.924 28.133c4.676-1.18 6.474-4.23 5.947-8.924-.416-3.711-2.532-5.663-6.083-6.19-4.675-.693-8.426 2.02-9.034 6.455-.67 4.898 2.37 8.07 9.17 8.659m27.646-15.786c-.347-2.138-1.4-3.764-3.605-4.217-3.03-.623-5.256.642-6.238 3.527-.913 2.682.572 4.683 2.924 5.482 3.583 1.219 6.128-.116 6.92-4.792m-78.903 1.928c-.239-3.141-2.02-4.981-5.075-4.757-2.74.2-4.374 2.044-4.416 4.988-.036 2.475 1.136 4.185 3.506 4.668 3.284.669 5.4-.721 5.985-4.899m40.303 28.087c-2.677-.527-4.61.52-5.426 3.05-.795 2.462-.113 4.689 2.423 5.753 2.338.98 4.772.693 6.09-1.654 1.662-2.958.708-5.388-3.087-7.149m-21.393-74.527c-2.992-.823-4.933.367-5.63 3.277-.621 2.591.506 4.593 2.904 5.699 2.492 1.149 4.234-.277 5.438-2.187 1.8-2.856.742-5.044-2.712-6.79m300.494-1.599c10.003 2.47 18.196 6.783 22.578 16.254 4.697 10.152 3.779 11.647-6.952 11.625-2.331-.005-4.665-.113-6.992-.025-3.095.117-5.261-1.072-7.152-3.625-4.798-6.477-12.847-8.61-20.514-5.748-2.405.898-4.67 2.022-4.835 5.055-.16 2.95 1.712 4.598 4.064 5.722 5.302 2.535 11.068 3.548 16.743 4.81 5.044 1.12 10.012 2.476 14.823 4.352 9.898 3.86 15.967 10.812 16.312 21.698.347 10.948-4.282 19.927-14.128 24.522-16.536 7.718-33.613 7.504-50.14-.463-8.674-4.182-12.468-12.028-13.59-21.364-.38-3.166 1.06-4.288 3.887-4.326 3.496-.047 7.013.182 10.484-.121 4.979-.436 8.685.422 10.086 6.117.707 2.874 3.541 4.235 6.288 5.257 5.495 2.046 11.052 2.138 16.66.62 2.55-.689 4.563-1.98 4.975-4.914.45-3.193-.8-5.483-3.517-7.096-3.046-1.809-6.4-2.777-9.806-3.555-6.977-1.592-13.883-3.418-20.65-5.762-9.102-3.153-15.995-8.434-16.975-18.774-1.126-11.88 3.888-20.665 14.366-26.23 10.629-5.647 22.012-5.731 33.985-4.028m67.571 59.704c.92-12.72 8.848-18.842 19.426-22.601 6.935-2.465 14.296-3.081 21.4-4.819.97-.236 1.982-.32 2.927-.623 3.898-1.248 8.307-2.772 7.762-7.653-.536-4.791-5.17-5.743-9.215-6.058-6.467-.504-12.74.063-17.077 5.935-.999 1.353-2.445 1.59-4.004 1.579-4.497-.03-8.995-.118-13.49-.028-4.087.082-5.374-1.59-4.208-5.555 2.77-9.417 9.026-15.624 18.14-18.42 11.697-3.588 23.662-3.597 35.414.055 10.497 3.261 17.083 11.785 17.451 23.096.38 11.646.652 23.345-.023 34.963-.746 12.827-6.974 22.476-19.631 26.87-10.596 3.679-21.49 4.493-32.475 2.019-15.782-3.556-22.391-12.015-22.397-28.76m51.622-12.956c-7.362 1.982-14.834 3.637-22.049 6.057-5.283 1.772-7.44 5.922-6.59 10.4.924 4.853 4.524 7.744 10.003 8.032 14.551.764 22.836-9.651 18.636-24.49M409.992 474.64c5.044-.65 6.53 1.298 6.467 5.887-.234 17.314-.005 34.634-.17 51.95-.147 15.435-8.28 25.368-23.257 28.834-8.868 2.053-17.744 2.416-26.71.398-17.219-3.875-25.914-13.707-26.382-31.443-.449-16.973-.055-33.966-.153-50.95-.02-3.433 1.3-4.802 4.719-4.686 4.657.158 9.335.25 13.982-.017 4.147-.238 5.594 1.398 5.559 5.472-.125 14.485-.038 28.972.006 43.459.009 2.828-.014 5.68.324 8.48.87 7.207 5.417 11.316 12.633 11.68 9.308.47 13.273-2.103 15.102-10.09.513-2.24.63-4.608.643-6.919.066-11.655.04-23.311.042-34.967.002-12.224 4.682-17.01 17.195-17.089m191.681-25.332c.261-1.073.35-2.077.75-2.223 5.404-1.97 10.847-1.691 15.987.694 4.389 2.036 5.948 6.028 5.948 10.708 0 32.63-.03 65.26.055 97.89.009 3.524-1.02 5.076-4.802 5.135-4.658.074-9.294.32-13.966.012-2.983-.197-4.103-1.375-4.058-4.298.1-6.495.013-12.993.016-19.49.011-29.321.028-58.642.07-88.428"/><path fill="#E71809" opacity="1.000000" stroke="none" d="M225.062 502.392c.893-15.52.362-30.655.224-45.79-.077-8.427-.014-16.857-.014-25.393 5.68-.83 10.515-.945 15.238-.13 6.005 1.037 10.046 5.818 10.34 12.43.362 8.146.168 16.317.225 24.476.017 2.382-1.147 4.102-2.967 5.483-10.44 7.92-17.677 17.962-20.528 30.928-.124.568-.633 1.05-.968 1.581-1.404-.834-1.344-2.068-1.55-3.585m78.186-47.697c3.192-.867 7.318 1.938 8.628-2.483 1.33-4.487 2.035-9.22-2.133-12.954-1.979-1.772-2.675-3.82-1.204-6.194.944-1.525 2.332-2.422 4.22-1.73 2.536.93 3.205 2.697 3.19 5.444-.031 6.048 2.313 12.088-.081 18.156-.438 1.11.417 1.881 1.241 2.482 1.075.783 2.457 1.29 3.256 2.28 3.627 4.5 7.15 4.243 11.606.872 3.857-2.918 9.303-1.609 13.656-3.947 1.673-.899 3.51.748 4.316 2.543.734 1.632.396 3.264-.865 4.617-1.445 1.552-3.457 2.072-4.93.768-3.859-3.419-7.415-1.624-11.041.12-3.56 1.71-5.061 4.07-3.81 8.384 2.064 7.12 1.072 12.767-2.778 18.551-8.399-14.347-20.986-23.293-36.465-29.67 3.842-4.405 7.83-6.597 13.194-7.239M287.746 472.9c4.087-3.376 7.674-3.15 9.224.3.888 1.976.71 3.885-.865 5.53-1.71 1.787-3.84 2.18-5.926 1.137-2.692-1.344-3.823-3.6-2.433-6.967m24.542 12.946c3.747-.171 5.76 1.406 6.002 4.765.191 2.672-1.278 4.419-3.871 4.916-2.848.545-4.84-.874-5.769-3.473-1.099-3.072.373-5.036 3.638-6.208m-19.136 8.056c-1.813-2.151-3.284-4.058-1.847-8.05 3.35 4.803 7.345 7.472 12.76 9.478-4.946 3.293-7.769.896-10.913-1.428"/></svg>